PathFileType	4	(X/Y/Z)	Patient4_TMGait_0pt8_01_right_12.trc.trc
DataRate	CameraRate	NumFrames	NumMarkers	Units	OrigDataRate	OrigDataStartFrame	OrigNumFrames
89.171974522293	89.171974522293	4	33	mm	89.171974522293	124	       141
Frame#	Time	Sacral			L.Shoulder			Chest			R.Shoulder			Neck			R.ASIS			L.ASIS			R.Thigh.Superior			R.Thigh.Lateral			R.Thigh.Inferior			R.Patella			L.Thigh.Superior			L.Thigh.Lateral			L.Thigh.Inferior			L.Patella			L.Shank.Superior			L.Shank.Lateral			L.Shank.Inferior			R.Shank.Superior			R.Shank.Lateral			R.Shank.Inferior			R.Heel			R.Midfoot.Superior			R.Midfoot.Lateral			R.Toe			L.Heel			L.Midfoot.Lateral			L.Midfoot.Superior			L.Toe			L.Elbow			L.Wrist			R.Elbow			R.Wrist			
		X1	Y1	Z1	X2	Y2	Z2	X3	Y3	Z3	X4	Y4	Z4	X5	Y5	Z5	X6	Y6	Z6	X7	Y7	Z7	X8	Y8	Z8	X9	Y9	Z9	X10	Y10	Z10	X11	Y11	Z11	X12	Y12	Z12	X13	Y13	Z13	X14	Y14	Z14	X15	Y15	Z15	X16	Y16	Z16	X17	Y17	Z17	X18	Y18	Z18	X19	Y19	Z19	X20	Y20	Z20	X21	Y21	Z21	X22	Y22	Z22	X23	Y23	Z23	X24	Y24	Z24	X25	Y25	Z25	X26	Y26	Z26	X27	Y27	Z27	X28	Y28	Z28	X29	Y29	Z29	X30	Y30	Z30	X31	Y31	Z31	X32	Y32	Z32	X33	Y33	Z33	

124	14.599357142857	882.647669665848	982.053423546680	449.470555958090	1052.886068382987	1419.476762564498	278.636438297353	1148.142657355947	1349.351877633581	444.113517142021	1051.706409073162	1416.899731375090	613.791825715568	1030.672306798042	1476.354637641009	433.198367400396	1111.686773969339	922.824965339716	569.884199029679	1096.884637537047	949.190717121893	294.474313738705	1187.925527675853	753.367578849143	538.126927470019	1146.977445366339	626.993101835710	610.901090939825	1238.069182137035	596.326124330969	531.377541624874	1271.500249567798	515.278938305015	544.206279052378	1087.168214072815	718.039088499371	315.415405244004	957.719482969094	631.966176847489	260.369063353568	1014.143735861305	532.867446613127	320.021351794858	994.223281162744	465.420625410580	329.389801893039	952.858754153115	403.015884876042	323.969498231783	836.729669382632	309.862579841279	281.869400124989	869.810777000237	189.655712374043	350.230617900704	1261.883113269310	425.172982631689	553.872754553462	1214.361357708257	307.313929297198	612.975507015964	1289.611470274104	227.150161817996	561.355880495297	1208.268817184817	39.905460793758	529.277329656366	1365.668340204661	117.941989039618	572.028402728365	1288.670673179149	43.640272174729	606.617408999664	1489.652044260017	87.146115991580	606.016232643025	723.911362084678	47.377814157702	407.306583017524	790.583705453491	38.032602738195	321.738391012241	878.268037630452	96.591844680429	339.620734890135	1001.252385923015	39.616790845468	301.472251640292	1170.130223723685	1117.057106870693	120.683214058471	1422.577571968313	1100.507332499371	166.947754983952	886.185555058662	1115.332693033421	708.037165593100	824.773635285544	862.868613302885	719.319479959091	
125	14.610571428571	885.167377509233	980.779233333458	452.778281308606	1052.977244195139	1418.228883877682	280.660855180511	1149.539683575819	1348.521235019683	445.580846489443	1053.940809642535	1415.888002170444	615.833171690684	1031.664236292150	1475.116000851163	435.375191919270	1115.295305209800	921.211793273100	571.030753180526	1098.233828653831	947.942672413765	295.834067926340	1191.811863887487	751.878261031517	538.223641399807	1149.938491073481	625.280870953648	610.126318827006	1240.566860887056	594.744202527676	530.328176989058	1272.848687224518	512.604197642480	542.342409983624	1088.167875839832	716.663699647121	316.183114975017	958.052361091763	631.143805156508	261.827207083752	1014.629166837085	531.407421175178	320.664408119558	994.358361553567	463.203728209815	329.645780618815	951.115564714849	401.564918835626	324.399250908190	832.729299832211	311.064612147462	282.656840792560	863.400769943587	189.774620210684	350.093768170640	1262.176275675835	422.005503605648	552.259550325127	1213.199273707435	304.994103983738	611.624329654635	1286.227754027927	223.620031360760	559.350006680241	1200.297357013526	39.714798687099	527.854832851043	1359.712771745885	113.228602556497	569.578009282885	1280.928067796744	41.634287614383	605.092465903651	1483.148052730677	79.122986367715	603.361608762873	715.098702321779	49.657599077755	406.862429122086	781.742916277416	38.932394149586	321.497897848771	870.022141557256	96.873872327977	339.067709295968	992.307700763510	39.227988285741	301.329353864251	1169.253566355941	1115.806468088976	122.106391263003	1421.520385854474	1106.231043298984	168.803563006806	886.288447805188	1116.305098895132	710.280194051442	822.496657174306	864.448251850258	721.221527243297	
126	14.621785714286	887.751744249034	979.747480465711	456.204135114850	1053.197139108848	1417.219512293846	282.760476931379	1151.037963613615	1347.928277887517	447.137211877309	1056.308821622197	1415.096345000116	617.998815498152	1032.792710372068	1474.171973908612	437.671045925587	1118.924751344835	919.993599301366	572.271345140510	1099.719095551889	946.930736965358	297.249528106693	1195.917688585324	750.907569990616	538.234171749981	1153.346468505745	624.248624239513	609.541523271446	1243.333234367164	593.694912653271	529.321065523479	1274.554116137255	510.334807224696	540.728672772560	1089.500748876095	715.503991871638	317.065714224571	958.925838203887	630.321876566920	263.437824541231	1015.961833249417	529.992699065971	321.314090912689	995.447969077766	460.896358325629	329.753967406933	950.084174507192	400.107021332507	324.773724187317	829.296176178890	312.564736191995	283.501044506865	857.391212441262	190.132395318802	349.858555092749	1262.609541760915	419.260270883888	550.896912774583	1212.097723456201	303.243389161946	610.798171142973	1282.468525320535	220.444940681889	557.694928870494	1191.346771775992	39.894551828947	526.908973367586	1352.916972659701	108.879974321664	567.610838677118	1272.285126414940	39.943104759317	604.028319395909	1475.787520721016	71.299472645665	601.038919093750	706.417680286315	52.589953068156	406.356353070454	772.944323944808	40.127498350226	321.221443756161	862.011812599549	97.205263809833	338.364000777083	983.329306325296	38.867490937086	301.204824713261	1167.626587823095	1114.211079592870	123.762519908937	1419.663743734063	1110.740021215247	170.562507463598	887.513964364019	1116.779472486653	712.775801964934	822.088704162976	865.302800938822	723.434441694214	
127	14.633000000000	890.374278127817	978.993991894534	459.698799262735	1053.556880326232	1416.495843010778	284.912720157611	1152.630494892630	1347.602551618198	448.764310711641	1058.799912021450	1414.560394150478	620.262220656035	1034.057127531773	1473.565791977781	440.051757464952	1122.514741374782	919.216960056960	573.630743462729	1101.302511343012	946.184068945597	298.721074205904	1200.069377706077	750.440824393576	538.221860100132	1157.055306630783	623.892999941997	609.268574112110	1246.216272564028	593.140747052575	528.482251254851	1276.470280677378	508.520135298595	539.511218252554	1091.194133685465	714.609395668390	318.096745159218	960.422859100784	629.498246873166	265.168194509548	1018.246173965011	528.649395425875	321.957047474082	997.589367795981	458.526214870149	329.673655058143	949.875062813626	398.665715351359	325.048920899162	826.553096691029	314.414102471805	284.364489746370	851.899791859844	190.798548656062	349.499532842840	1263.119868863760	417.006409232582	549.883350417701	1211.085990792209	302.070275412581	610.534312438335	1278.488870024107	217.741602352096	556.441874981933	1181.916859728415	40.322380614164	526.409766933699	1345.581640467037	105.143160791065	566.166759642457	1263.195061367661	38.631068521013	603.414081117829	1467.904613845670	64.237863289940	599.156975606293	697.962409863822	56.338452793263	405.781142787398	764.240845829912	41.731216145760	320.908574803602	854.320541677416	97.607542588927	337.496338257808	974.320555260139	38.540832661665	301.111786994322	1165.252708629204	1112.301185820244	125.677023934255	1417.088011032612	1113.982224150399	172.224401580875	889.914610721674	1116.724026993681	715.511525447080	823.562945618538	865.410183309273	725.965829651160	
